<?xml version="1.0" standalone="no"?>
<!DOCTYPE svg PUBLIC "-//W3C//DTD SVG 20010904//EN"
 "http://www.w3.org/TR/2001/REC-SVG-20010904/DTD/svg10.dtd">
<svg version="1.0" xmlns="http://www.w3.org/2000/svg"
 width="300.000000pt" height="300.000000pt" viewBox="0 0 300.000000 300.000000"
 preserveAspectRatio="xMidYMid meet">
<metadata>
Created by potrace 1.10, written by Peter Selinger 2001-2011
</metadata>
<g transform="translate(0.000000,300.000000) scale(0.100000,-0.100000)"
fill="#000000" stroke="none">
<path d="M1495 2430 c-4 -6 -13 -70 -20 -143 -49 -484 -56 -531 -78 -553 -19
-18 -57 -25 -292 -53 -148 -18 -285 -34 -304 -36 -18 -2 -36 -6 -39 -10 -16
-15 30 -25 223 -44 407 -41 387 -38 411 -63 20 -21 26 -50 53 -278 17 -140 32
-271 33 -290 2 -23 8 -35 18 -35 17 0 17 1 60 349 25 202 33 242 49 258 19 17
182 39 559 74 60 5 72 10 70 23 -2 10 -15 17 -38 19 -19 1 -154 16 -300 34
-320 38 -306 31 -320 164 -5 49 -17 154 -25 234 -9 80 -20 190 -25 244 -10 97
-20 130 -35 106z m16 -380 c1 -47 5 -89 9 -95 13 -17 32 -187 22 -197 -6 -6
-25 -5 -51 3 -33 10 -40 16 -36 33 8 35 35 293 35 333 1 76 19 8 21 -77z m57
-366 c29 -34 29 -78 -3 -109 -52 -53 -145 -16 -145 57 1 81 93 114 148 52z
m-214 -21 c-6 -22 -4 -25 10 -20 13 5 16 0 16 -24 l0 -30 -57 7 c-72 8 -104
23 -53 24 19 1 44 5 55 10 12 5 -45 9 -149 9 -93 1 -167 3 -165 5 2 2 45 7 94
11 123 9 225 22 233 29 14 14 22 4 16 -21z m497 -4 l144 -14 -165 -5 c-91 -3
-157 -8 -147 -12 10 -5 30 -8 43 -8 33 0 30 -20 -3 -21 -16 0 -39 -3 -53 -5
-36 -7 -48 1 -43 30 3 16 10 23 20 19 11 -4 13 0 8 20 -7 25 -6 26 22 18 16
-5 95 -15 174 -22z m-307 -191 c-2 -24 -11 -74 -19 -113 -8 -38 -16 -91 -18
-118 -6 -70 -14 -67 -22 10 -11 114 -23 201 -31 226 -4 11 0 17 11 17 9 0 14
4 11 8 -3 5 13 9 34 10 l40 3 -6 -43z"/>
<path d="M1302 2230 c-161 -58 -296 -184 -367 -344 -56 -126 -52 -190 10 -169
21 7 31 21 48 73 29 86 69 153 131 218 58 62 168 130 235 147 45 12 46 13 49
54 3 39 2 41 -25 40 -15 0 -52 -9 -81 -19z m68 -30 c0 -6 -8 -13 -17 -16 -10
-3 -49 -20 -88 -39 -139 -66 -257 -203 -305 -353 -18 -56 -36 -40 -20 19 26
95 114 229 189 286 63 49 122 84 152 90 16 3 32 10 35 14 7 13 54 11 54 -1z"/>
<path d="M1593 2236 c4 -10 7 -31 7 -47 0 -23 4 -29 22 -29 12 0 55 -17 97
-37 140 -70 260 -209 294 -343 15 -57 40 -77 80 -64 17 5 19 12 14 56 -18 150
-173 345 -337 426 -97 48 -188 67 -177 38z m122 -42 c140 -58 273 -188 328
-320 31 -75 40 -111 28 -118 -9 -6 -33 38 -46 84 -4 14 -14 36 -23 50 -9 14
-17 30 -18 36 -4 23 -132 154 -176 180 -13 8 -56 30 -95 49 -72 35 -91 55 -54
55 10 0 35 -7 56 -16z"/>
<path d="M1322 2040 c-83 -39 -173 -126 -212 -203 -40 -80 -39 -97 3 -97 42 0
49 6 76 62 26 55 116 141 166 159 30 11 35 18 35 45 0 18 3 39 6 48 9 22 -2
20 -74 -14z m28 -38 c0 -5 -17 -18 -38 -30 -46 -26 -132 -115 -158 -163 -14
-26 -19 -30 -22 -16 -8 37 69 135 153 195 30 22 65 29 65 14z"/>
<path d="M1615 2023 c4 -26 8 -48 8 -49 34 -15 98 -59 116 -78 29 -31 52 -33
74 -8 26 29 20 48 -25 84 -55 44 -83 61 -137 82 l-43 17 7 -48z m128 -52 c20
-12 37 -29 37 -37 0 -20 -5 -18 -71 27 -33 22 -57 45 -53 50 4 6 14 5 27 -4
12 -7 39 -23 60 -36z"/>
<path d="M1264 1849 c-3 -6 14 -31 39 -57 40 -39 48 -44 62 -32 14 12 12 18
-27 57 -43 44 -61 52 -74 32z"/>
<path d="M1665 1820 c-36 -37 -38 -41 -23 -56 14 -15 19 -13 57 21 43 39 54
75 23 75 -10 0 -36 -18 -57 -40z"/>
<path d="M1841 1844 c-18 -13 -22 -22 -17 -47 9 -43 24 -57 62 -57 30 0 34 3
34 28 0 28 -33 92 -48 92 -4 0 -18 -7 -31 -16z"/>
<path d="M895 1530 c-9 -15 13 -103 41 -167 46 -106 128 -200 235 -269 67 -44
212 -100 229 -89 6 3 10 24 10 45 0 38 -2 40 -42 51 -171 46 -323 193 -374
364 -10 33 -23 63 -29 67 -15 11 -63 9 -70 -2z m78 -96 c45 -141 165 -265 330
-343 58 -28 85 -51 59 -51 -22 0 -115 39 -149 63 -22 15 -44 27 -50 27 -20 0
-148 145 -176 200 -50 96 -72 177 -45 168 6 -2 20 -31 31 -64z"/>
<path d="M2036 1531 c-3 -5 -15 -38 -26 -74 -48 -156 -201 -308 -356 -353 -48
-14 -52 -17 -56 -50 -2 -19 1 -39 7 -44 14 -11 154 35 215 72 119 71 228 207
269 335 29 91 26 117 -16 121 -17 2 -34 -1 -37 -7z m40 -48 c-3 -10 -8 -31
-12 -48 -16 -68 -81 -174 -148 -240 -64 -63 -175 -129 -231 -138 -11 -1 -26
-6 -32 -10 -8 -5 -13 -3 -13 7 0 9 6 16 13 16 15 0 107 47 163 83 75 48 186
184 209 256 16 52 36 91 46 91 6 0 8 -8 5 -17z"/>
<path d="M1080 1502 c0 -36 62 -144 111 -192 42 -42 193 -131 202 -119 2 2 2
25 -1 50 -3 41 -7 47 -38 58 -49 18 -139 104 -165 159 -27 56 -34 62 -76 62
-25 0 -33 -4 -33 -18z m89 -70 c22 -43 103 -122 149 -146 33 -17 43 -36 19
-36 -18 0 -96 51 -130 85 -35 36 -64 82 -73 119 -9 39 10 27 35 -22z"/>
<path d="M1853 1514 c-6 -3 -23 -29 -38 -59 -29 -59 -95 -124 -156 -152 -21
-10 -39 -25 -39 -34 0 -9 -3 -31 -6 -48 l-6 -31 43 15 c68 24 121 59 171 113
48 52 93 130 99 172 4 22 0 25 -26 27 -16 1 -35 0 -42 -3z m27 -59 c-34 -89
-161 -211 -213 -203 -19 3 -17 7 23 33 64 42 119 95 137 130 30 58 72 90 53
40z"/>
<path d="M1300 1465 c-41 -41 -43 -46 -28 -61 14 -15 20 -12 63 30 39 38 45
49 35 61 -18 21 -21 20 -70 -30z"/>
<path d="M1643 1503 c-22 -8 -15 -26 28 -69 42 -42 69 -48 69 -14 0 14 -73 92
-83 89 -1 0 -8 -3 -14 -6z"/>
<path d="M1262 853 c-21 -8 -2 -23 31 -23 22 0 28 3 18 9 -11 7 -10 10 5 14
12 3 8 5 -11 5 -16 0 -36 -2 -43 -5z"/>
<path d="M1688 853 c6 -2 10 -9 6 -14 -6 -10 26 -12 51 -3 24 10 -1 24 -40 23
-16 0 -24 -3 -17 -6z"/>
<path d="M810 636 c0 -31 5 -56 10 -56 6 0 10 11 10 24 0 18 6 25 23 28 16 2
22 10 22 28 0 21 -5 26 -32 28 l-33 3 0 -55z"/>
<path d="M926 675 c-13 -35 -6 -74 15 -85 32 -17 51 4 47 54 -3 36 -6 41 -29
44 -17 2 -29 -3 -33 -13z m44 -41 c0 -45 -24 -42 -28 4 -2 24 1 32 12 32 12 0
16 -10 16 -36z"/>
<path d="M1040 640 c0 -47 2 -50 25 -50 14 0 28 0 32 -1 4 0 9 4 11 10 2 6 -8
11 -22 11 -24 0 -26 4 -26 40 0 22 -4 40 -10 40 -5 0 -10 -22 -10 -50z"/>
<path d="M1159 640 c-9 -28 -12 -53 -7 -56 4 -3 11 2 14 10 8 21 24 20 39 -1
7 -9 14 -12 17 -7 8 15 -22 104 -36 104 -6 0 -19 -23 -27 -50z"/>
<path d="M1270 645 c0 -25 0 -47 0 -50 0 -15 16 -3 20 16 5 21 6 21 18 -5 7
-15 16 -24 22 -21 6 4 5 13 -2 25 -9 14 -9 22 1 34 18 21 -2 46 -35 46 -22 0
-24 -4 -24 -45z"/>
<path d="M1380 680 c0 -5 5 -10 10 -10 15 0 12 -67 -2 -73 -7 -3 5 -6 27 -6
35 0 38 1 23 13 -22 16 -24 66 -3 66 8 0 15 5 15 10 0 6 -16 10 -35 10 -19 0
-35 -4 -35 -10z"/>
<path d="M1496 674 c-7 -19 10 -44 30 -44 8 0 14 -7 14 -15 0 -17 -16 -20 -25
-5 -8 13 -25 13 -25 0 0 -14 37 -31 54 -24 26 10 19 49 -10 62 -14 7 -22 17
-19 23 5 7 11 6 21 -2 16 -13 30 -6 19 10 -10 17 -52 13 -59 -5z"/>
<path d="M1715 680 c3 -5 13 -10 21 -10 11 0 14 -10 12 -40 -2 -21 2 -40 7
-42 6 -2 11 15 13 36 2 22 11 45 20 53 15 11 10 12 -31 13 -30 0 -46 -4 -42
-10z"/>
<path d="M1840 640 c0 -47 2 -50 25 -50 14 0 27 0 30 0 3 0 5 3 4 8 0 4 -9 6
-20 5 -11 -2 -19 3 -19 12 0 8 9 15 20 15 11 0 20 5 20 10 0 6 -9 10 -20 10
-11 0 -20 5 -20 10 0 6 9 10 19 10 11 0 23 5 26 10 4 6 -8 10 -29 10 l-36 0 0
-50z"/>
<path d="M1957 684 c-4 -4 -7 -24 -7 -45 0 -46 26 -67 56 -44 10 7 16 17 12
21 -4 4 -14 2 -21 -4 -18 -15 -27 -5 -27 31 0 26 2 29 26 23 19 -5 25 -3 22 6
-5 14 -50 23 -61 12z"/>
<path d="M2062 638 c2 -29 7 -52 13 -50 6 2 9 12 7 22 -2 13 2 20 12 20 9 0
16 -8 16 -19 0 -11 5 -23 10 -26 6 -4 10 15 10 49 0 31 -4 56 -10 56 -5 0 -10
-9 -10 -20 0 -12 -7 -20 -16 -20 -11 0 -15 6 -11 20 3 13 0 20 -9 20 -12 0
-14 -12 -12 -52z"/>
</g>
</svg>
