<?xml version="1.0" encoding="UTF-8" standalone="no"?>
<svg
   version="1.0"
   width="500.000000pt"
   height="500.000000pt"
   viewBox="0 0 500.000000 500.000000"
   preserveAspectRatio="xMidYMid meet"
   id="svg131"
   sodipodi:docname="POLARIS-TECH.svg"
   inkscape:version="1.2.2 (b0a8486541, 2022-12-01)"
   xmlns:inkscape="http://www.inkscape.org/namespaces/inkscape"
   xmlns:sodipodi="http://sodipodi.sourceforge.net/DTD/sodipodi-0.dtd"
   xmlns="http://www.w3.org/2000/svg"
   xmlns:svg="http://www.w3.org/2000/svg">
  <defs
     id="defs135" />
  <sodipodi:namedview
     id="namedview133"
     pagecolor="#ffffff"
     bordercolor="#000000"
     borderopacity="0.25"
     inkscape:showpageshadow="2"
     inkscape:pageopacity="0.0"
     inkscape:pagecheckerboard="0"
     inkscape:deskcolor="#d1d1d1"
     inkscape:document-units="pt"
     showgrid="false"
     inkscape:zoom="1.191"
     inkscape:cx="294.29051"
     inkscape:cy="333.33333"
     inkscape:window-width="1916"
     inkscape:window-height="1003"
     inkscape:window-x="0"
     inkscape:window-y="0"
     inkscape:window-maximized="1"
     inkscape:current-layer="svg131" />
  <g
     transform="translate(0.000000,500.000000) scale(0.100000,-0.100000)"
     fill="#000000"
     stroke="none"
     id="g129">
    <path
       d="M2487 4053 c-3 -4 -10 -60 -16 -123 -7 -63 -32 -300 -56 -526 -25 -227 -45 -425 -45 -441 0 -21 -12 -40 -42 -69 l-43 -41 -190 -22 c-104 -13 -294 -36 -422 -51 -127 -16 -266 -32 -307 -36 -79 -7 -110 -24 -88 -46 7 -7 74 -18 149 -24 76 -7 226 -22 333 -34 107 -11 270 -28 363 -37 l167 -17 37 -38 36 -37 43 -348 c24 -191 49 -406 56 -477 11 -104 17 -131 31 -140 24 -15 47 15 47 61 0 33 37 344 84 717 l24 188 37 38 c34 35 41 38 113 43 42 4 223 22 402 42 179 19 367 38 418 41 172 13 164 54 -13 73 -60 7 -272 32 -470 57 -197 24 -371 44 -385 44 -17 0 -39 13 -63 38 l-38 39 -54 529 c-31 291 -59 545 -63 564 -7 33 -33 52 -45 33z m94 -1216 c45 -30 71 -82 65 -130 -16 -132 -180 -173 -257 -65 -28 39 -31 113 -5 152 42 65 134 85 197 43z"
       id="path97" />
    <path
       d="M2123 3093 c-30 -12 -12 -51 52 -112 62 -59 67 -62 87 -49 12 8 24 20 26 27 5 15 -120 141 -139 140 -8 0 -20 -3 -26 -6z"
       id="path99" />
    <path
       d="M2784 3036 c-67 -68 -71 -75 -52 -94 24 -24 54 -12 111 46 58 58 67 78 45 100 -22 22 -39 13 -104 -52z"
       id="path101" />
    <path
       d="M2174 2448 c-51 -49 -64 -67 -62 -88 2 -18 10 -26 28 -28 21 -2 39 11 88 62 34 35 62 71 62 80 0 14 -28 36 -45 36 -4 0 -36 -28 -71 -62z"
       id="path103" />
    <path
       d="M2730 2490 c-9 -18 -2 -30 52 -91 50 -56 68 -69 88 -67 18 2 26 10 28 27 3 18 -11 39 -59 87 -67 67 -91 77 -109 44z"
       id="path105" />
    <path
       d="M1350 1065 c0 -69 3 -85 15 -85 10 0 15 11 15 35 0 32 2 35 29 35 27 0 61 29 61 52 0 22 -43 48 -80 48 l-40 0 0 -85z m78 56 c23 -14 10 -46 -21 -49 -24 -3 -27 0 -27 27 0 32 19 41 48 22z"
       id="path107" />
    <path
       d="M1556 1134 c-11 -10 -16 -34 -16 -69 0 -60 16 -85 55 -85 40 0 55 25 55 90 0 48 -4 61 -19 70 -28 14 -57 12 -75 -6z m64 -23 c24 -46 1 -121 -34 -108 -12 5 -16 19 -16 60 0 30 3 57 7 60 12 13 32 7 43 -12z"
       id="path109" />
    <path
       d="M1740 1065 l0 -85 50 0 c38 0 50 4 50 15 0 10 -11 15 -35 15 l-35 0 0 70 c0 56 -3 70 -15 70 -12 0 -15 -16 -15 -85z"
       id="path111" />
    <path
       d="M1955 1138 c-2 -7 -12 -46 -23 -85 -15 -59 -17 -73 -6 -73 8 0 14 7 14 15 0 21 32 35 53 24 9 -6 17 -17 17 -24 0 -8 7 -15 16 -15 9 0 13 6 11 13 -3 6 -13 45 -23 85 -14 57 -21 72 -36 72 -10 0 -20 -6 -23 -12z m35 -57 c7 -25 6 -33 -6 -38 -22 -8 -27 2 -20 43 8 41 13 40 26 -5z"
       id="path113" />
    <path
       d="M2120 1065 c0 -50 4 -85 10 -85 6 0 10 16 10 35 0 22 5 35 13 35 7 0 21 -16 30 -35 17 -35 46 -51 32 -17 -15 34 -17 60 -6 66 6 4 11 20 11 36 0 34 -23 50 -69 50 l-31 0 0 -85z m69 51 c17 -20 3 -46 -25 -46 -20 0 -24 5 -24 30 0 23 5 30 19 30 10 0 24 -6 30 -14z"
       id="path115" />
    <path
       d="M2310 1140 c0 -5 7 -10 15 -10 12 0 15 -14 15 -65 0 -51 -3 -65 -15 -65 -8 0 -15 -4 -15 -10 0 -5 23 -10 50 -10 28 0 50 5 50 10 0 6 -9 10 -20 10 -18 0 -20 7 -20 65 0 58 2 65 20 65 11 0 20 5 20 10 0 6 -22 10 -50 10 -27 0 -50 -4 -50 -10z"
       id="path117" />
    <path
       d="M2506 1134 c-9 -8 -16 -22 -16 -29 0 -19 27 -44 55 -51 29 -7 38 -29 19 -45 -12 -9 -20 -9 -39 1 -31 16 -42 8 -20 -14 31 -31 95 -12 95 28 0 26 -28 56 -54 56 -21 0 -32 28 -18 42 9 9 18 8 37 -2 29 -16 43 -7 25 15 -16 20 -64 19 -84 -1z"
       id="path119" />
    <path
       d="M2870 1140 c0 -5 9 -10 20 -10 18 0 20 -7 20 -75 0 -60 3 -75 15 -75 12 0 15 15 15 75 0 73 1 75 25 75 14 0 25 5 25 10 0 6 -27 10 -60 10 -33 0 -60 -4 -60 -10z"
       id="path121" />
    <path
       d="M3070 1065 l0 -85 50 0 c58 0 68 17 13 22 -33 3 -38 6 -38 28 0 21 5 26 33 28 44 4 41 22 -4 22 -31 0 -35 3 -32 23 2 18 10 23 41 25 55 5 45 22 -13 22 l-50 0 0 -85z"
       id="path123" />
    <path
       d="M3266 1128 c-34 -49 -10 -148 35 -148 29 0 59 18 59 35 0 19 -9 19 -31 -1 -32 -29 -49 -11 -49 51 0 62 17 80 49 51 14 -13 21 -14 27 -5 9 15 -22 39 -52 39 -13 0 -30 -10 -38 -22z"
       id="path125" />
    <path
       d="M3450 1065 c0 -50 4 -85 10 -85 6 0 10 18 10 40 0 36 3 40 25 40 23 0 25 -4 25 -40 0 -29 4 -40 15 -40 12 0 15 16 15 85 0 69 -3 85 -15 85 -10 0 -15 -11 -15 -35 0 -31 -3 -35 -25 -35 -22 0 -25 4 -25 35 0 19 -4 35 -10 35 -6 0 -10 -35 -10 -85z"
       id="path127" />
  </g>
  <path
     sodipodi:type="spiral"
     style="fill:none;fill-rule:evenodd;stroke:#000000;stroke-width:0.75"
     id="path672"
     sodipodi:cx="241.18387"
     sodipodi:cy="229.84886"
     sodipodi:expansion="1"
     sodipodi:revolution="3"
     sodipodi:radius="16.384901"
     sodipodi:argument="-18.887999"
     sodipodi:t0="0"
     d="m 241.18387,229.84886 c 0.8209,-0.0316 0.44756,1.09099 0.0525,1.3644 -1.07067,0.74093 -2.40414,-0.21528 -2.78128,-1.25944 -0.67462,-1.86777 0.78302,-3.74619 2.57137,-4.19816 2.62447,-0.66328 5.11184,1.35262 5.61503,3.88329 0.67066,3.37299 -1.92212,6.48661 -5.19522,7.03191 -4.11885,0.68621 -7.86586,-2.49138 -8.44878,-6.50714 -0.70599,-4.86362 3.06046,-9.2477 7.81906,-9.86566 5.60784,-0.72824 10.63114,3.62944 11.28254,9.13099 0.75205,6.35174 -4.19834,12.01566 -10.44291,12.69941 -7.09547,0.77692 -13.40093,-4.76719 -14.11629,-11.75483 -0.80252,-7.83907 5.336,-14.78675 13.06675,-15.53316 8.5826,-0.82866 16.17299,5.90479 16.95004,14.37867"
     transform="translate(8.8161209,-1.2594458)" />
  <path
     sodipodi:type="spiral"
     style="fill:none;fill-rule:evenodd;stroke:#000000;stroke-width:0.75"
     id="path676"
     sodipodi:cx="152.39294"
     sodipodi:cy="330.60452"
     sodipodi:expansion="1"
     sodipodi:revolution="3"
     sodipodi:radius="130.83849"
     sodipodi:argument="-16.709446"
     sodipodi:t0="0"
     d="m 152.39294,330.60452 c -3.53621,5.52533 -9.19267,-2.04074 -9.18345,-5.87742 0.025,-10.39715 12.37368,-14.77836 20.93829,-12.48949 15.32008,4.09425 20.98724,22.21495 15.79554,35.99917 -7.61905,20.22889 -32.1761,27.34243 -51.06005,19.10157 -25.16933,-10.98377 -33.757692,-42.17801 -22.40761,-66.12092 14.28292,-30.1297 52.19892,-40.20357 81.18179,-25.71365 35.10215,17.54924 46.6671,62.23044 29.01969,96.24267 -20.79686,40.08223 -72.26856,53.14169 -111.30354,32.32573 -45.067435,-24.03285 -59.623659,-82.31109 -35.631768,-126.36442 27.261112,-50.05619 92.356718,-66.1108 141.425298,-38.93781 55.04753,30.48399 72.60168,102.40461 42.24384,156.48617 -33.70296,60.04079 -112.45421,79.09539 -171.547045,45.54989"
     transform="translate(91.309824,-98.47733)" />
</svg>
